<svg id="midground" xmlns="http://www.w3.org/2000/svg" xmlns:xlink="http://www.w3.org/1999/xlink" viewBox="0 0 2500 1600"><defs><style>.cls-1{fill:none;}.cls-2{clip-path:url(#clip-path);}.cls-3{fill:url(#linear-gradient);}.cls-4{fill:url(#linear-gradient-2);}.cls-5{fill:url(#linear-gradient-3);}.cls-6{fill:url(#linear-gradient-4);}.cls-7{fill:url(#linear-gradient-5);}.cls-8{fill:url(#linear-gradient-6);}.cls-9{fill:url(#linear-gradient-7);}.cls-10{fill:url(#linear-gradient-8);}.cls-11{fill:url(#linear-gradient-9);}.cls-12{fill:url(#linear-gradient-10);}.cls-13{fill:url(#linear-gradient-11);}.cls-14{fill:url(#linear-gradient-12);}.cls-15{fill:url(#linear-gradient-13);}.cls-16{fill:url(#linear-gradient-14);}.cls-17{fill:url(#linear-gradient-15);}.cls-18{fill:url(#linear-gradient-16);}.cls-19{fill:url(#linear-gradient-17);}.cls-20{fill:url(#linear-gradient-18);}.cls-21{fill:url(#linear-gradient-19);}.cls-22{fill:url(#linear-gradient-20);}.cls-23{fill:url(#linear-gradient-21);}.cls-24{fill:url(#linear-gradient-22);}.cls-25{fill:url(#linear-gradient-23);}.cls-26{fill:url(#linear-gradient-24);}.cls-27{fill:url(#linear-gradient-25);}.cls-28{fill:url(#linear-gradient-26);}.cls-29{fill:url(#linear-gradient-27);}.cls-30{fill:url(#linear-gradient-28);}.cls-31{fill:url(#linear-gradient-29);}.cls-32{fill:url(#linear-gradient-30);}</style><clipPath id="clip-path"><rect class="cls-1" width="2500" height="1600"/></clipPath><linearGradient id="linear-gradient" x1="601.94" y1="660.66" x2="931.49" y2="660.66" gradientUnits="userSpaceOnUse"><stop offset="0" stop-color="#ffd87a"/><stop offset="1" stop-color="#ff8406"/></linearGradient><linearGradient id="linear-gradient-2" x1="624.52" y1="660.66" x2="915.71" y2="660.66" xlink:href="#linear-gradient"/><linearGradient id="linear-gradient-3" x1="647.1" y1="660.66" x2="900.74" y2="660.66" xlink:href="#linear-gradient"/><linearGradient id="linear-gradient-4" x1="669.68" y1="660.66" x2="886.57" y2="660.66" xlink:href="#linear-gradient"/><linearGradient id="linear-gradient-5" x1="692.26" y1="660.66" x2="873.18" y2="660.66" xlink:href="#linear-gradient"/><linearGradient id="linear-gradient-6" x1="714.84" y1="660.66" x2="860.47" y2="660.66" xlink:href="#linear-gradient"/><linearGradient id="linear-gradient-7" x1="737.43" y1="660.66" x2="848.14" y2="660.66" xlink:href="#linear-gradient"/><linearGradient id="linear-gradient-8" x1="1403.62" y1="246.33" x2="1287.73" y2="372.92" xlink:href="#linear-gradient"/><linearGradient id="linear-gradient-9" x1="615.66" y1="1287.69" x2="779.7" y2="1134.35" xlink:href="#linear-gradient"/><linearGradient id="linear-gradient-10" x1="1721.24" y1="481.64" x2="1612.47" y2="583.27" xlink:href="#linear-gradient"/><linearGradient id="linear-gradient-11" x1="1059.91" y1="1378.51" x2="1129.45" y2="1308.97" xlink:href="#linear-gradient"/><linearGradient id="linear-gradient-12" x1="1672.63" y1="248.61" x2="1447.97" y2="494.67" xlink:href="#linear-gradient"/><linearGradient id="linear-gradient-13" x1="813.51" y1="1375.26" x2="941.89" y2="1236.19" xlink:href="#linear-gradient"/><linearGradient id="linear-gradient-14" x1="832.93" y1="842.91" x2="1659.93" y2="842.91" gradientUnits="userSpaceOnUse"><stop offset="0" stop-color="#ff06bf"/><stop offset="1" stop-color="#7800b7"/></linearGradient><linearGradient id="linear-gradient-15" x1="777.06" y1="842.91" x2="1715.8" y2="842.91" xlink:href="#linear-gradient-14"/><linearGradient id="linear-gradient-16" x1="1531.05" y1="905.11" x2="1900.55" y2="905.11" gradientTransform="translate(1142.55 -948.15) rotate(45)" xlink:href="#linear-gradient-14"/><linearGradient id="linear-gradient-17" x1="1341.25" y1="1254.01" x2="1514.01" y2="1254.01" xlink:href="#linear-gradient"/><linearGradient id="linear-gradient-18" x1="1311.39" y1="1254.01" x2="1543.86" y2="1254.01" xlink:href="#linear-gradient"/><linearGradient id="linear-gradient-19" x1="911.82" y1="337.73" x2="998.94" y2="337.73" xlink:href="#linear-gradient-14"/><linearGradient id="linear-gradient-20" x1="1616.37" y1="1232.42" x2="1703.5" y2="1232.42" xlink:href="#linear-gradient-14"/><linearGradient id="linear-gradient-21" x1="630.59" y1="1063.17" x2="676.85" y2="1063.17" xlink:href="#linear-gradient-14"/><linearGradient id="linear-gradient-22" x1="2048.59" y1="913.17" x2="2094.85" y2="913.17" xlink:href="#linear-gradient-14"/><linearGradient id="linear-gradient-23" x1="102.59" y1="1285.17" x2="148.85" y2="1285.17" xlink:href="#linear-gradient-14"/><linearGradient id="linear-gradient-24" x1="2099.55" y1="491.9" x2="2108.55" y2="491.9" gradientTransform="translate(994.45 -1202.29) rotate(45)" xlink:href="#linear-gradient"/><linearGradient id="linear-gradient-25" x1="2357.68" y1="1033.59" x2="2366.68" y2="1033.59" gradientTransform="translate(994.45 -1202.29) rotate(45)" xlink:href="#linear-gradient"/><linearGradient id="linear-gradient-26" x1="838.65" y1="1423.96" x2="847.65" y2="1423.96" gradientTransform="translate(994.45 -1202.29) rotate(45)" xlink:href="#linear-gradient"/><linearGradient id="linear-gradient-27" x1="1042.32" y1="643.23" x2="1051.32" y2="643.23" gradientTransform="translate(994.45 -1202.29) rotate(45)" xlink:href="#linear-gradient"/><linearGradient id="linear-gradient-28" x1="2094.61" y1="1814.33" x2="2103.61" y2="1814.33" gradientTransform="translate(994.45 -1202.29) rotate(45)" xlink:href="#linear-gradient"/><linearGradient id="linear-gradient-29" x1="254.92" y1="779.1" x2="404.4" y2="779.1" gradientTransform="translate(924.43 177.5) rotate(67.61)" xlink:href="#linear-gradient"/><linearGradient id="linear-gradient-30" x1="2147.09" y1="454.06" x2="2276.57" y2="454.06" gradientTransform="translate(342.12 -811.87) rotate(22.5)" xlink:href="#linear-gradient-14"/></defs><g class="cls-2"><path class="cls-3" d="M797.12,473A186.75,186.75,0,0,1,912.7,512.89q7,5.49,13.48,11.61c1.76-1.77,3.53-3.53,5.31-5.25Q925,513.09,918,507.56a194.18,194.18,0,0,0-120.91-42.08c-107.63,0-195.18,87.56-195.18,195.19,0,100.9,77,184.16,175.26,194.17q8.68.88,17.59,1c-.08-2.49-.12-5-.15-7.48-5.92-.09-11.78-.43-17.55-1.06-94.12-10-167.66-89.89-167.66-186.62C609.43,557.17,693.62,473,797.12,473Z"/><path class="cls-4" d="M902.2,523.82a171.71,171.71,0,0,0-105.08-35.75c-95.17,0-172.6,77.42-172.6,172.6,0,88.43,66.85,161.54,152.66,171.45a172,172,0,0,0,17.55,1.13c0-2.5.1-5,.2-7.49a160.53,160.53,0,0,1-17.51-1.17C695.62,814.83,632,745,632,660.67c0-91,74.07-165.12,165.12-165.12A165.21,165.21,0,0,1,910.65,540.9q2.52-2.79,5.06-5.52A174.86,174.86,0,0,0,902.2,523.82Z"/><path class="cls-5" d="M887.2,540.79a149.2,149.2,0,0,0-90.08-30.14c-82.73,0-150,67.3-150,150,0,76.32,57.28,139.51,131.13,148.82a148.82,148.82,0,0,0,17.52,1.17c.18-2.49.37-5,.59-7.47A140.75,140.75,0,0,1,778.81,802c-70-9-124.22-69-124.22-141.35,0-78.6,63.94-142.54,142.53-142.54a142.36,142.36,0,0,1,98.84,40c1.57-2,3.16-3.87,4.78-5.79A148.43,148.43,0,0,0,887.2,540.79Z"/><path class="cls-6" d="M873.05,558.39A127.37,127.37,0,0,0,669.68,660.67c0,64.58,48.3,118.1,110.66,126.33a127.25,127.25,0,0,0,16.78,1.1h.79c.31-2.51.63-5,1-7.5-.6,0-1.19,0-1.78,0a119.84,119.84,0,0,1-15.84-1c-58.69-7.78-104.12-58.15-104.12-118.9a119.89,119.89,0,0,1,191.41-96.29A122.79,122.79,0,0,1,882.05,576c1.49-2,3-4,4.52-6A124.65,124.65,0,0,0,873.05,558.39Z"/><path class="cls-7" d="M859.8,576.65a104.84,104.84,0,1,0-62.68,188.87c1.39,0,2.78,0,4.14-.09.43-2.53.9-5.06,1.38-7.57-1.83.12-3.67.17-5.52.17A97.41,97.41,0,1,1,868.89,595q2.1-3.21,4.29-6.39A106,106,0,0,0,859.8,576.65Z"/><path class="cls-8" d="M847.39,595.6a82.25,82.25,0,1,0-59.57,146.79,79.53,79.53,0,0,0,9.3.54,84.64,84.64,0,0,0,8.76-.46q.87-3.91,1.83-7.78a72.63,72.63,0,0,1-10.59.76,73.77,73.77,0,0,1-7.62-.39,74.78,74.78,0,1,1,66.86-120c1.35-2.29,2.71-4.59,4.11-6.86A82.26,82.26,0,0,0,847.39,595.6Z"/><path class="cls-9" d="M835.83,615.27a59.67,59.67,0,1,0-42.59,105c1.28.09,2.58.13,3.88.13A59.15,59.15,0,0,0,812,718.46c.84-2.88,1.69-5.76,2.58-8.61a51.71,51.71,0,0,1-17.49,3c-.61,0-1.22,0-1.81,0A52.16,52.16,0,1,1,844,637.69q2-4,4.16-8A59.9,59.9,0,0,0,835.83,615.27Z"/><path class="cls-10" d="M1448.14,253.24,1306.33,395.05a451.88,451.88,0,0,0-59.9-4q-13.59,0-27,.81l18.26-18.27,165.39-165.39a28.92,28.92,0,0,1,40.92,0l4.1,4.09A28.94,28.94,0,0,1,1448.14,253.24Z"/><path class="cls-11" d="M835.67,1031.05a450.46,450.46,0,0,0,32,58L652.93,1303.81a28.92,28.92,0,0,1-40.91,0l-4.1-4.09a28.93,28.93,0,0,1,0-40.92l214.44-214.44Z"/><path class="cls-12" d="M1747.55,496.87l-100.8,100.81-12.92,12.92a452.71,452.71,0,0,0-37.19-52.85l12.64-12.63,93.26-93.26a28.92,28.92,0,0,1,40.91,0l4.1,4.1A28.92,28.92,0,0,1,1747.55,496.87Z"/><path class="cls-13" d="M1117.43,1276a447.85,447.85,0,0,0,74.52,15.49l-15.63,15.63-84.67,84.67a28.93,28.93,0,0,1-40.92,0l-4.09-4.1a28.91,28.91,0,0,1,0-40.9l56.69-56.69Z"/><path class="cls-14" d="M1756,274.37a97.66,97.66,0,0,1-28.7,69.28L1569,502l-12.57,12.57A451.83,451.83,0,0,0,1382,411.86l14-14,192.78-192.77A98,98,0,0,1,1756,274.37Z"/><path class="cls-15" d="M1062.6,1255.63,1049.25,1269l-126,125.94a98,98,0,1,1-138.57-138.57l106.54-106.53h0l12.61-12.6A454,454,0,0,0,1062.6,1255.63Z"/><path class="cls-16" d="M1659.93,842.91c0,228.38-185.12,413.5-413.5,413.5q-9.54,0-19-.44a412.2,412.2,0,0,1-78.81-11.2h0a407,407,0,0,1-56.89-18.28,413.1,413.1,0,0,1-258.68-374q-.1-3.79-.11-7.61c0-.66,0-1.34,0-2q0-6.74.22-13.43.12-3.88.32-7.75.39-7.93,1.09-15.79.36-4,.79-8,.89-8.25,2.1-16.43c.41-2.8.87-5.61,1.34-8.4q1.53-9,3.44-17.85c.69-3.19,1.42-6.39,2.18-9.57q2.76-11.38,6.13-22.55,2.46-8.19,5.28-16.25a406.42,406.42,0,0,1,15.69-38.63h0q3.6-7.74,7.52-15.29,5.37-10.39,11.32-20.42,2.49-4.22,5.07-8.35,4.8-7.69,10-15.16c1.6-2.35,3.24-4.67,4.9-7q4.82-6.72,9.9-13.24,2.46-3.17,5-6.27,5-6.15,10.21-12.09c1.69-2,3.41-3.86,5.15-5.77q5.19-5.72,10.61-11.23,2.65-2.73,5.37-5.38a412.22,412.22,0,0,1,289.94-118.7q12.48,0,24.8.74a413.3,413.3,0,0,1,388.7,412.76Z"/><path class="cls-17" d="M912.7,512.89q-5.37,5.4-10.5,10.93-2.57,2.76-5.07,5.57-5.07,5.61-9.93,11.4c-1.62,1.91-3.21,3.82-4.78,5.76-3.2,3.9-6.31,7.85-9.37,11.84-1.51,2-3,4-4.48,6q-4.52,6.06-8.77,12.27c-1.43,2.06-2.83,4.12-4.21,6.2q-4.22,6.31-8.2,12.75c-1.33,2.13-2.63,4.28-3.91,6.43q-3.94,6.54-7.65,13.24-1.87,3.36-3.67,6.75-9.93,18.62-18.21,38.19a461,461,0,0,0-18.64,52.62q-1.09,3.69-2.07,7.39-2,7.39-3.74,14.84c-.6,2.44-1.15,4.89-1.68,7.33q-1.62,7.41-3,14.86-.71,3.69-1.3,7.39-1.26,7.43-2.26,14.93c-.33,2.47-.65,4.94-.94,7.43q-.89,7.49-1.53,15c-.21,2.49-.42,5-.58,7.47q-.54,7.51-.81,15.1a160.53,160.53,0,0,0,17.51,1.17q.29-7.57.82-15.1c.18-2.49.37-5,.59-7.47q.66-7.61,1.57-15.1c.31-2.51.63-5,1-7.5q1.05-7.62,2.36-15.16c.43-2.53.9-5.06,1.38-7.57q1.49-7.75,3.24-15.39.87-3.91,1.83-7.78,2-8.18,4.32-16.23c.84-2.88,1.69-5.76,2.58-8.61A446.78,446.78,0,0,1,844,637.69q2-4,4.16-8,4-7.41,8.22-14.64c1.35-2.29,2.71-4.59,4.11-6.86q4.1-6.72,8.42-13.27,2.1-3.21,4.29-6.39,4.32-6.35,8.87-12.53c1.49-2,3-4,4.52-6q4.57-6,9.39-11.92c1.57-2,3.16-3.87,4.78-5.79q4.86-5.77,9.91-11.39,2.52-2.79,5.06-5.52,5.14-5.53,10.47-10.88Q919.72,518.38,912.7,512.89Zm0,0q-5.37,5.4-10.5,10.93-2.57,2.76-5.07,5.57-5.07,5.61-9.93,11.4c-1.62,1.91-3.21,3.82-4.78,5.76-3.2,3.9-6.31,7.85-9.37,11.84-1.51,2-3,4-4.48,6q-4.52,6.06-8.77,12.27c-1.43,2.06-2.83,4.12-4.21,6.2q-4.22,6.31-8.2,12.75c-1.33,2.13-2.63,4.28-3.91,6.43q-3.94,6.54-7.65,13.24-1.87,3.36-3.67,6.75-9.93,18.62-18.21,38.19a461,461,0,0,0-18.64,52.62q-1.09,3.69-2.07,7.39-2,7.39-3.74,14.84c-.6,2.44-1.15,4.89-1.68,7.33q-1.62,7.41-3,14.86-.71,3.69-1.3,7.39-1.26,7.43-2.26,14.93c-.33,2.47-.65,4.94-.94,7.43q-.89,7.49-1.53,15c-.21,2.49-.42,5-.58,7.47q-.54,7.51-.81,15.1a160.53,160.53,0,0,0,17.51,1.17q.29-7.57.82-15.1c.18-2.49.37-5,.59-7.47q.66-7.61,1.57-15.1c.31-2.51.63-5,1-7.5q1.05-7.62,2.36-15.16c.43-2.53.9-5.06,1.38-7.57q1.49-7.75,3.24-15.39.87-3.91,1.83-7.78,2-8.18,4.32-16.23c.84-2.88,1.69-5.76,2.58-8.61A446.78,446.78,0,0,1,844,637.69q2-4,4.16-8,4-7.41,8.22-14.64c1.35-2.29,2.71-4.59,4.11-6.86q4.1-6.72,8.42-13.27,2.1-3.21,4.29-6.39,4.32-6.35,8.87-12.53c1.49-2,3-4,4.52-6q4.57-6,9.39-11.92c1.57-2,3.16-3.87,4.78-5.79q4.86-5.77,9.91-11.39,2.52-2.79,5.06-5.52,5.14-5.53,10.47-10.88Q919.72,518.38,912.7,512.89Zm0,0q-5.37,5.4-10.5,10.93-2.57,2.76-5.07,5.57-5.07,5.61-9.93,11.4c-1.62,1.91-3.21,3.82-4.78,5.76-3.2,3.9-6.31,7.85-9.37,11.84-1.51,2-3,4-4.48,6q-4.52,6.06-8.77,12.27c-1.43,2.06-2.83,4.12-4.21,6.2q-4.22,6.31-8.2,12.75c-1.33,2.13-2.63,4.28-3.91,6.43q-3.94,6.54-7.65,13.24-1.87,3.36-3.67,6.75-9.93,18.62-18.21,38.19a461,461,0,0,0-18.64,52.62q-1.09,3.69-2.07,7.39-2,7.39-3.74,14.84c-.6,2.44-1.15,4.89-1.68,7.33q-1.62,7.41-3,14.86-.71,3.69-1.3,7.39-1.26,7.43-2.26,14.93c-.33,2.47-.65,4.94-.94,7.43q-.89,7.49-1.53,15c-.21,2.49-.42,5-.58,7.47q-.54,7.51-.81,15.1a160.53,160.53,0,0,0,17.51,1.17q.29-7.57.82-15.1c.18-2.49.37-5,.59-7.47q.66-7.61,1.57-15.1c.31-2.51.63-5,1-7.5q1.05-7.62,2.36-15.16c.43-2.53.9-5.06,1.38-7.57q1.49-7.75,3.24-15.39.87-3.91,1.83-7.78,2-8.18,4.32-16.23c.84-2.88,1.69-5.76,2.58-8.61A446.78,446.78,0,0,1,844,637.69q2-4,4.16-8,4-7.41,8.22-14.64c1.35-2.29,2.71-4.59,4.11-6.86q4.1-6.72,8.42-13.27,2.1-3.21,4.29-6.39,4.32-6.35,8.87-12.53c1.49-2,3-4,4.52-6q4.57-6,9.39-11.92c1.57-2,3.16-3.87,4.78-5.79q4.86-5.77,9.91-11.39,2.52-2.79,5.06-5.52,5.14-5.53,10.47-10.88Q919.72,518.38,912.7,512.89Zm0,0q-5.37,5.4-10.5,10.93-2.57,2.76-5.07,5.57-5.07,5.61-9.93,11.4c-1.62,1.91-3.21,3.82-4.78,5.76-3.2,3.9-6.31,7.85-9.37,11.84-1.51,2-3,4-4.48,6q-4.52,6.06-8.77,12.27c-1.43,2.06-2.83,4.12-4.21,6.2q-4.22,6.31-8.2,12.75c-1.33,2.13-2.63,4.28-3.91,6.43q-3.94,6.54-7.65,13.24-1.87,3.36-3.67,6.75-9.93,18.62-18.21,38.19a461,461,0,0,0-18.64,52.62q-1.09,3.69-2.07,7.39-2,7.39-3.74,14.84c-.6,2.44-1.15,4.89-1.68,7.33q-1.62,7.41-3,14.86-.71,3.69-1.3,7.39-1.26,7.43-2.26,14.93c-.33,2.47-.65,4.94-.94,7.43q-.89,7.49-1.53,15c-.21,2.49-.42,5-.58,7.47q-.54,7.51-.81,15.1a160.53,160.53,0,0,0,17.51,1.17q.29-7.57.82-15.1c.18-2.49.37-5,.59-7.47q.66-7.61,1.57-15.1c.31-2.51.63-5,1-7.5q1.05-7.62,2.36-15.16c.43-2.53.9-5.06,1.38-7.57q1.49-7.75,3.24-15.39.87-3.91,1.83-7.78,2-8.18,4.32-16.23c.84-2.88,1.69-5.76,2.58-8.61A446.78,446.78,0,0,1,844,637.69q2-4,4.16-8,4-7.41,8.22-14.64c1.35-2.29,2.71-4.59,4.11-6.86q4.1-6.72,8.42-13.27,2.1-3.21,4.29-6.39,4.32-6.35,8.87-12.53c1.49-2,3-4,4.52-6q4.57-6,9.39-11.92c1.57-2,3.16-3.87,4.78-5.79q4.86-5.77,9.91-11.39,2.52-2.79,5.06-5.52,5.14-5.53,10.47-10.88Q919.72,518.38,912.7,512.89Zm0,0q-5.37,5.4-10.5,10.93-2.57,2.76-5.07,5.57-5.07,5.61-9.93,11.4c-1.62,1.91-3.21,3.82-4.78,5.76-3.2,3.9-6.31,7.85-9.37,11.84-1.51,2-3,4-4.48,6q-4.52,6.06-8.77,12.27c-1.43,2.06-2.83,4.12-4.21,6.2q-4.22,6.31-8.2,12.75c-1.33,2.13-2.63,4.28-3.91,6.43q-3.94,6.54-7.65,13.24-1.87,3.36-3.67,6.75-9.93,18.62-18.21,38.19a461,461,0,0,0-18.64,52.62q-1.09,3.69-2.07,7.39-2,7.39-3.74,14.84c-.6,2.44-1.15,4.89-1.68,7.33q-1.62,7.41-3,14.86-.71,3.69-1.3,7.39-1.26,7.43-2.26,14.93c-.33,2.47-.65,4.94-.94,7.43q-.89,7.49-1.53,15c-.21,2.49-.42,5-.58,7.47q-.54,7.51-.81,15.1a160.53,160.53,0,0,0,17.51,1.17q.29-7.57.82-15.1c.18-2.49.37-5,.59-7.47q.66-7.61,1.57-15.1c.31-2.51.63-5,1-7.5q1.05-7.62,2.36-15.16c.43-2.53.9-5.06,1.38-7.57q1.49-7.75,3.24-15.39.87-3.91,1.83-7.78,2-8.18,4.32-16.23c.84-2.88,1.69-5.76,2.58-8.61A446.78,446.78,0,0,1,844,637.69q2-4,4.16-8,4-7.41,8.22-14.64c1.35-2.29,2.71-4.59,4.11-6.86q4.1-6.72,8.42-13.27,2.1-3.21,4.29-6.39,4.32-6.35,8.87-12.53c1.49-2,3-4,4.52-6q4.57-6,9.39-11.92c1.57-2,3.16-3.87,4.78-5.79q4.86-5.77,9.91-11.39,2.52-2.79,5.06-5.52,5.14-5.53,10.47-10.88Q919.72,518.38,912.7,512.89Zm0,0q-5.37,5.4-10.5,10.93-2.57,2.76-5.07,5.57-5.07,5.61-9.93,11.4c-1.62,1.91-3.21,3.82-4.78,5.76-3.2,3.9-6.31,7.85-9.37,11.84-1.51,2-3,4-4.48,6q-4.52,6.06-8.77,12.27c-1.43,2.06-2.83,4.12-4.21,6.2q-4.22,6.31-8.2,12.75c-1.33,2.13-2.63,4.28-3.91,6.43q-3.94,6.54-7.65,13.24-1.87,3.36-3.67,6.75-9.93,18.62-18.21,38.19a461,461,0,0,0-18.64,52.62q-1.09,3.69-2.07,7.39-2,7.39-3.74,14.84c-.6,2.44-1.15,4.89-1.68,7.33q-1.62,7.41-3,14.86-.71,3.69-1.3,7.39-1.26,7.43-2.26,14.93c-.33,2.47-.65,4.94-.94,7.43q-.89,7.49-1.53,15c-.21,2.49-.42,5-.58,7.47q-.54,7.51-.81,15.1c-.11,2.51-.18,5-.24,7.53q-.12,5.39-.12,10.79,0,2.21,0,4.38c5.77.63,11.63,1,17.55,1.06,0-1.81,0-3.62,0-5.44,0-3.23,0-6.45.12-9.66,0-2.5.1-5,.2-7.49q.29-7.57.82-15.1c.18-2.49.37-5,.59-7.47q.66-7.61,1.57-15.1c.31-2.51.63-5,1-7.5q1.05-7.62,2.36-15.16c.43-2.53.9-5.06,1.38-7.57q1.49-7.75,3.24-15.39.87-3.91,1.83-7.78,2-8.18,4.32-16.23c.84-2.88,1.69-5.76,2.58-8.61A446.78,446.78,0,0,1,844,637.69q2-4,4.16-8,4-7.41,8.22-14.64c1.35-2.29,2.71-4.59,4.11-6.86q4.1-6.72,8.42-13.27,2.1-3.21,4.29-6.39,4.32-6.35,8.87-12.53c1.49-2,3-4,4.52-6q4.57-6,9.39-11.92c1.57-2,3.16-3.87,4.78-5.79q4.86-5.77,9.91-11.39,2.52-2.79,5.06-5.52,5.14-5.53,10.47-10.88Q919.72,518.38,912.7,512.89Zm766.22,147.32a468.14,468.14,0,0,0-69.64-115.09q-14.57-17.7-31-34.1-4.61-4.61-9.32-9.06a467.37,467.37,0,0,0-139.87-91.53q-16.41-6.93-33.17-12.58a463.26,463.26,0,0,0-74.14-18.3,472.27,472.27,0,0,0-75.4-6c-2.9,0-5.81,0-8.7.09A467.7,467.7,0,0,0,918,507.56L914.54,511c-.62.62-1.24,1.25-1.84,1.87q-5.37,5.4-10.5,10.93-2.57,2.76-5.07,5.57-5.07,5.61-9.93,11.4c-1.62,1.91-3.21,3.82-4.78,5.76-3.2,3.9-6.31,7.85-9.37,11.84-1.51,2-3,4-4.48,6q-4.52,6.06-8.77,12.27c-1.43,2.06-2.83,4.12-4.21,6.2q-4.22,6.31-8.2,12.75c-1.33,2.13-2.63,4.28-3.91,6.43q-3.94,6.54-7.65,13.24-1.87,3.36-3.67,6.75-9.93,18.62-18.21,38.19a461,461,0,0,0-18.64,52.62q-1.09,3.69-2.07,7.39-2,7.39-3.74,14.84c-.6,2.44-1.15,4.89-1.68,7.33q-1.62,7.41-3,14.86-.71,3.69-1.3,7.39-1.26,7.43-2.26,14.93c-.33,2.47-.65,4.94-.94,7.43q-.89,7.49-1.53,15c-.21,2.49-.42,5-.58,7.47q-.54,7.51-.81,15.1c-.11,2.51-.18,5-.24,7.53q-.12,5.39-.12,10.79,0,2.21,0,4.38,0,3.78.11,7.55A465.82,465.82,0,0,0,814,1025.62q4,9.47,8.41,18.74a466.78,466.78,0,0,0,68.91,105.45h0q11.15,12.86,23.27,25A467.78,467.78,0,0,0,1049.25,1269q7.15,3.33,14.47,6.42,19.54,8.26,39.61,14.68a463.54,463.54,0,0,0,73,17,473.19,473.19,0,0,0,70.11,5.18,469.64,469.64,0,0,0,432.49-652.07Zm-432.49,634.53a453.6,453.6,0,0,1-54.48-3.27,447.78,447.78,0,0,1-129.35-35.84,454.15,454.15,0,0,1-226.93-224.58,448.57,448.57,0,0,1-40.88-175.22c-.08-2.49-.12-5-.15-7.48,0-1.81,0-3.62,0-5.44,0-3.23,0-6.45.12-9.66,0-2.5.1-5,.2-7.49q.29-7.57.82-15.1c.18-2.49.37-5,.59-7.47q.66-7.61,1.57-15.1c.31-2.51.63-5,1-7.5q1.05-7.62,2.36-15.16c.43-2.53.9-5.06,1.38-7.57q1.49-7.75,3.24-15.39.87-3.91,1.83-7.78,2-8.18,4.32-16.23c.84-2.88,1.69-5.76,2.58-8.61A446.78,446.78,0,0,1,844,637.69q2-4,4.16-8,4-7.41,8.22-14.64c1.35-2.29,2.71-4.59,4.11-6.86q4.1-6.72,8.42-13.27,2.1-3.21,4.29-6.39,4.32-6.35,8.87-12.53c1.49-2,3-4,4.52-6q4.57-6,9.39-11.92c1.57-2,3.16-3.87,4.78-5.79q4.86-5.77,9.91-11.39,2.52-2.79,5.06-5.52,5.14-5.53,10.47-10.88c1.76-1.77,3.53-3.53,5.31-5.25,75.41-73.41,176.3-120.76,288-127.35q13.38-.81,27-.81a451.88,451.88,0,0,1,59.9,4A445.22,445.22,0,0,1,1382,411.86a452.38,452.38,0,0,1,316.29,431.05C1698.26,1092.05,1495.57,1294.74,1246.43,1294.74ZM912.7,512.89q-5.37,5.4-10.5,10.93-2.57,2.76-5.07,5.57-5.07,5.61-9.93,11.4c-1.62,1.91-3.21,3.82-4.78,5.76-3.2,3.9-6.31,7.85-9.37,11.84-1.51,2-3,4-4.48,6q-4.52,6.06-8.77,12.27c-1.43,2.06-2.83,4.12-4.21,6.2q-4.22,6.31-8.2,12.75c-1.33,2.13-2.63,4.28-3.91,6.43q-3.94,6.54-7.65,13.24-1.87,3.36-3.67,6.75-9.93,18.62-18.21,38.19a461,461,0,0,0-18.64,52.62q-1.09,3.69-2.07,7.39-2,7.39-3.74,14.84c-.6,2.44-1.15,4.89-1.68,7.33q-1.62,7.41-3,14.86-.71,3.69-1.3,7.39-1.26,7.43-2.26,14.93c-.33,2.47-.65,4.94-.94,7.43q-.89,7.49-1.53,15c-.21,2.49-.42,5-.58,7.47q-.54,7.51-.81,15.1c-.11,2.51-.18,5-.24,7.53a172,172,0,0,0,17.55,1.13c0-2.5.1-5,.2-7.49q.29-7.57.82-15.1c.18-2.49.37-5,.59-7.47q.66-7.61,1.57-15.1c.31-2.51.63-5,1-7.5q1.05-7.62,2.36-15.16c.43-2.53.9-5.06,1.38-7.57q1.49-7.75,3.24-15.39.87-3.91,1.83-7.78,2-8.18,4.32-16.23c.84-2.88,1.69-5.76,2.58-8.61A446.78,446.78,0,0,1,844,637.69q2-4,4.16-8,4-7.41,8.22-14.64c1.35-2.29,2.71-4.59,4.11-6.86q4.1-6.72,8.42-13.27,2.1-3.21,4.29-6.39,4.32-6.35,8.87-12.53c1.49-2,3-4,4.52-6q4.57-6,9.39-11.92c1.57-2,3.16-3.87,4.78-5.79q4.86-5.77,9.91-11.39,2.52-2.79,5.06-5.52,5.14-5.53,10.47-10.88Q919.72,518.38,912.7,512.89Zm0,0q-5.37,5.4-10.5,10.93-2.57,2.76-5.07,5.57-5.07,5.61-9.93,11.4c-1.62,1.91-3.21,3.82-4.78,5.76-3.2,3.9-6.31,7.85-9.37,11.84-1.51,2-3,4-4.48,6q-4.52,6.06-8.77,12.27c-1.43,2.06-2.83,4.12-4.21,6.2q-4.22,6.31-8.2,12.75c-1.33,2.13-2.63,4.28-3.91,6.43q-3.94,6.54-7.65,13.24-1.87,3.36-3.67,6.75-9.93,18.62-18.21,38.19a461,461,0,0,0-18.64,52.62q-1.09,3.69-2.07,7.39-2,7.39-3.74,14.84c-.6,2.44-1.15,4.89-1.68,7.33q-1.62,7.41-3,14.86-.71,3.69-1.3,7.39-1.26,7.43-2.26,14.93c-.33,2.47-.65,4.94-.94,7.43q-.89,7.49-1.53,15c-.21,2.49-.42,5-.58,7.47q-.54,7.51-.81,15.1a160.53,160.53,0,0,0,17.51,1.17q.29-7.57.82-15.1c.18-2.49.37-5,.59-7.47q.66-7.61,1.57-15.1c.31-2.51.63-5,1-7.5q1.05-7.62,2.36-15.16c.43-2.53.9-5.06,1.38-7.57q1.49-7.75,3.24-15.39.87-3.91,1.83-7.78,2-8.18,4.32-16.23c.84-2.88,1.69-5.76,2.58-8.61A446.78,446.78,0,0,1,844,637.69q2-4,4.16-8,4-7.41,8.22-14.64c1.35-2.29,2.71-4.59,4.11-6.86q4.1-6.72,8.42-13.27,2.1-3.21,4.29-6.39,4.32-6.35,8.87-12.53c1.49-2,3-4,4.52-6q4.57-6,9.39-11.92c1.57-2,3.16-3.87,4.78-5.79q4.86-5.77,9.91-11.39,2.52-2.79,5.06-5.52,5.14-5.53,10.47-10.88Q919.72,518.38,912.7,512.89Zm0,0q-5.37,5.4-10.5,10.93-2.57,2.76-5.07,5.57-5.07,5.61-9.93,11.4c-1.62,1.91-3.21,3.82-4.78,5.76-3.2,3.9-6.31,7.85-9.37,11.84-1.51,2-3,4-4.48,6q-4.52,6.06-8.77,12.27c-1.43,2.06-2.83,4.12-4.21,6.2q-4.22,6.31-8.2,12.75c-1.33,2.13-2.63,4.28-3.91,6.43q-3.94,6.54-7.65,13.24-1.87,3.36-3.67,6.75-9.93,18.62-18.21,38.19a461,461,0,0,0-18.64,52.62q-1.09,3.69-2.07,7.39-2,7.39-3.74,14.84c-.6,2.44-1.15,4.89-1.68,7.33q-1.62,7.41-3,14.86-.71,3.69-1.3,7.39-1.26,7.43-2.26,14.93c-.33,2.47-.65,4.94-.94,7.43q-.89,7.49-1.53,15c-.21,2.49-.42,5-.58,7.47q-.54,7.51-.81,15.1a160.53,160.53,0,0,0,17.51,1.17q.29-7.57.82-15.1c.18-2.49.37-5,.59-7.47q.66-7.61,1.57-15.1c.31-2.51.63-5,1-7.5q1.05-7.62,2.36-15.16c.43-2.53.9-5.06,1.38-7.57q1.49-7.75,3.24-15.39.87-3.91,1.83-7.78,2-8.18,4.32-16.23c.84-2.88,1.69-5.76,2.58-8.61A446.78,446.78,0,0,1,844,637.69q2-4,4.16-8,4-7.41,8.22-14.64c1.35-2.29,2.71-4.59,4.11-6.86q4.1-6.72,8.42-13.27,2.1-3.21,4.29-6.39,4.32-6.35,8.87-12.53c1.49-2,3-4,4.52-6q4.57-6,9.39-11.92c1.57-2,3.16-3.87,4.78-5.79q4.86-5.77,9.91-11.39,2.52-2.79,5.06-5.52,5.14-5.53,10.47-10.88Q919.72,518.38,912.7,512.89Zm0,0q-5.37,5.4-10.5,10.93-2.57,2.76-5.07,5.57-5.07,5.61-9.93,11.4c-1.62,1.91-3.21,3.82-4.78,5.76-3.2,3.9-6.31,7.85-9.37,11.84-1.51,2-3,4-4.48,6q-4.52,6.06-8.77,12.27c-1.43,2.06-2.83,4.12-4.21,6.2q-4.22,6.31-8.2,12.75c-1.33,2.13-2.63,4.28-3.91,6.43q-3.94,6.54-7.65,13.24-1.87,3.36-3.67,6.75-9.93,18.62-18.21,38.19a461,461,0,0,0-18.64,52.62q-1.09,3.69-2.07,7.39-2,7.39-3.74,14.84c-.6,2.44-1.15,4.89-1.68,7.33q-1.62,7.41-3,14.86-.71,3.69-1.3,7.39-1.26,7.43-2.26,14.93c-.33,2.47-.65,4.94-.94,7.43q-.89,7.49-1.53,15c-.21,2.49-.42,5-.58,7.47q-.54,7.51-.81,15.1a160.53,160.53,0,0,0,17.51,1.17q.29-7.57.82-15.1c.18-2.49.37-5,.59-7.47q.66-7.61,1.57-15.1c.31-2.51.63-5,1-7.5q1.05-7.62,2.36-15.16c.43-2.53.9-5.06,1.38-7.57q1.49-7.75,3.24-15.39.87-3.91,1.83-7.78,2-8.18,4.32-16.23c.84-2.88,1.69-5.76,2.58-8.61A446.78,446.78,0,0,1,844,637.69q2-4,4.16-8,4-7.41,8.22-14.64c1.35-2.29,2.71-4.59,4.11-6.86q4.1-6.72,8.42-13.27,2.1-3.21,4.29-6.39,4.32-6.35,8.87-12.53c1.49-2,3-4,4.52-6q4.57-6,9.39-11.92c1.57-2,3.16-3.87,4.78-5.79q4.86-5.77,9.91-11.39,2.52-2.79,5.06-5.52,5.14-5.53,10.47-10.88Q919.72,518.38,912.7,512.89Zm0,0q-5.37,5.4-10.5,10.93-2.57,2.76-5.07,5.57-5.07,5.61-9.93,11.4c-1.62,1.91-3.21,3.82-4.78,5.76-3.2,3.9-6.31,7.85-9.37,11.84-1.51,2-3,4-4.48,6q-4.52,6.06-8.77,12.27c-1.43,2.06-2.83,4.12-4.21,6.2q-4.22,6.31-8.2,12.75c-1.33,2.13-2.63,4.28-3.91,6.43q-3.94,6.54-7.65,13.24-1.87,3.36-3.67,6.75-9.93,18.62-18.21,38.19a461,461,0,0,0-18.64,52.62q-1.09,3.69-2.07,7.39-2,7.39-3.74,14.84c-.6,2.44-1.15,4.89-1.68,7.33q-1.62,7.41-3,14.86-.71,3.69-1.3,7.39-1.26,7.43-2.26,14.93c-.33,2.47-.65,4.94-.94,7.43q-.89,7.49-1.53,15c-.21,2.49-.42,5-.58,7.47q-.54,7.51-.81,15.1a160.53,160.53,0,0,0,17.51,1.17q.29-7.57.82-15.1c.18-2.49.37-5,.59-7.47q.66-7.61,1.57-15.1c.31-2.51.63-5,1-7.5q1.05-7.62,2.36-15.16c.43-2.53.9-5.06,1.38-7.57q1.49-7.75,3.24-15.39.87-3.91,1.83-7.78,2-8.18,4.32-16.23c.84-2.88,1.69-5.76,2.58-8.61A446.78,446.78,0,0,1,844,637.69q2-4,4.16-8,4-7.41,8.22-14.64c1.35-2.29,2.71-4.59,4.11-6.86q4.1-6.72,8.42-13.27,2.1-3.21,4.29-6.39,4.32-6.35,8.87-12.53c1.49-2,3-4,4.52-6q4.57-6,9.39-11.92c1.57-2,3.16-3.87,4.78-5.79q4.86-5.77,9.91-11.39,2.52-2.79,5.06-5.52,5.14-5.53,10.47-10.88Q919.72,518.38,912.7,512.89Zm0,0q-5.37,5.4-10.5,10.93-2.57,2.76-5.07,5.57-5.07,5.61-9.93,11.4c-1.62,1.91-3.21,3.82-4.78,5.76-3.2,3.9-6.31,7.85-9.37,11.84-1.51,2-3,4-4.48,6q-4.52,6.06-8.77,12.27c-1.43,2.06-2.83,4.12-4.21,6.2q-4.22,6.31-8.2,12.75c-1.33,2.13-2.63,4.28-3.91,6.43q-3.94,6.54-7.65,13.24-1.87,3.36-3.67,6.75-9.93,18.62-18.21,38.19a461,461,0,0,0-18.64,52.62q-1.09,3.69-2.07,7.39-2,7.39-3.74,14.84a73.77,73.77,0,0,0,7.62.39,72.63,72.63,0,0,0,10.59-.76q2-8.18,4.32-16.23c.84-2.88,1.69-5.76,2.58-8.61A446.78,446.78,0,0,1,844,637.69q2-4,4.16-8,4-7.41,8.22-14.64c1.35-2.29,2.71-4.59,4.11-6.86q4.1-6.72,8.42-13.27,2.1-3.21,4.29-6.39,4.32-6.35,8.87-12.53c1.49-2,3-4,4.52-6q4.57-6,9.39-11.92c1.57-2,3.16-3.87,4.78-5.79q4.86-5.77,9.91-11.39,2.52-2.79,5.06-5.52,5.14-5.53,10.47-10.88Q919.72,518.38,912.7,512.89Z"/><circle class="cls-18" cx="1715.8" cy="905.11" r="184.75" transform="translate(-137.46 1478.35) rotate(-45)"/><path class="cls-19" d="M1514,1254a86.38,86.38,0,1,1-86.38-86.38A86.38,86.38,0,0,1,1514,1254Z"/><path class="cls-20" d="M1427.63,1370.24A116.24,116.24,0,1,1,1543.86,1254,116.37,116.37,0,0,1,1427.63,1370.24Zm0-223A106.79,106.79,0,1,0,1534.42,1254,106.92,106.92,0,0,0,1427.63,1147.22Z"/><path class="cls-21" d="M955.38,381.3a43.57,43.57,0,1,1,43.56-43.57A43.61,43.61,0,0,1,955.38,381.3Zm0-78.83a35.27,35.27,0,1,0,35.26,35.26A35.3,35.3,0,0,0,955.38,302.47Z"/><path class="cls-22" d="M1659.93,1276a43.57,43.57,0,1,1,43.57-43.56A43.61,43.61,0,0,1,1659.93,1276Zm0-78.83a35.27,35.27,0,1,0,35.27,35.27A35.31,35.31,0,0,0,1659.93,1197.15Z"/><path class="cls-23" d="M653.72,1086.3a23.13,23.13,0,1,1,23.13-23.13A23.15,23.15,0,0,1,653.72,1086.3Zm0-41.85a18.72,18.72,0,1,0,18.72,18.72A18.74,18.74,0,0,0,653.72,1044.45Z"/><path class="cls-24" d="M2071.72,936.3a23.13,23.13,0,1,1,23.13-23.13A23.15,23.15,0,0,1,2071.72,936.3Zm0-41.85a18.72,18.72,0,1,0,18.72,18.72A18.74,18.74,0,0,0,2071.72,894.45Z"/><path class="cls-25" d="M125.72,1308.3a23.13,23.13,0,1,1,23.13-23.13A23.15,23.15,0,0,1,125.72,1308.3Zm0-41.85a18.72,18.72,0,1,0,18.72,18.72A18.74,18.74,0,0,0,125.72,1266.45Z"/><path class="cls-26" d="M2052.73,721.33a4.49,4.49,0,0,1-6.36,0h0a4.49,4.49,0,0,1,0-6.36l169.7-169.7a4.49,4.49,0,0,1,6.36,0h0a4.49,4.49,0,0,1,0,6.36Z"/><path class="cls-27" d="M1852.22,1286.89a4.49,4.49,0,0,1-6.36,0h0a4.49,4.49,0,0,1,0-6.36l169.7-169.7a4.49,4.49,0,0,1,6.36,0h0a4.49,4.49,0,0,1,0,6.36Z"/><path class="cls-28" d="M502.09,488.81a4.5,4.5,0,0,1-6.37,0h0a4.51,4.51,0,0,1,0-6.36l169.7-169.7a4.49,4.49,0,0,1,6.36,0h0a4.49,4.49,0,0,1,0,6.36Z"/><path class="cls-29" d="M1198.16,80.77a4.5,4.5,0,0,1-6.37,0h0a4.49,4.49,0,0,1,0-6.36l169.7-169.7a4.49,4.49,0,0,1,6.36,0h0a4.49,4.49,0,0,1,0,6.36Z"/><path class="cls-30" d="M1114.15,1652.93a4.52,4.52,0,0,1-6.37,0h0a4.52,4.52,0,0,1,0-6.37l169.7-169.69a4.5,4.5,0,0,1,6.37,0h0a4.51,4.51,0,0,1,0,6.36Z"/><circle class="cls-31" cx="329.66" cy="779.1" r="74.74" transform="translate(-516.27 787.11) rotate(-67.61)"/><circle class="cls-32" cx="2211.83" cy="454.06" r="64.74" transform="translate(-5.39 880.99) rotate(-22.5)"/></g></svg>